<?xml version="1.0" encoding="UTF-8"?>
<svg width="32" height="32" viewBox="0 0 32 32" fill="none" xmlns="http://www.w3.org/2000/svg">
  <!-- Beer glass shape -->
  <path d="M8 6C8 4.89543 8.89543 4 10 4H22C23.1046 4 24 4.89543 24 6V24C24 26.2091 22.2091 28 20 28H12C9.79086 28 8 26.2091 8 24V6Z" fill="#D97706"/>
  
  <!-- Beer foam -->
  <path d="M8 8H24V10C24 11.1046 23.1046 12 22 12H10C8.89543 12 8 11.1046 8 10V8Z" fill="#FBBF24"/>
  
  <!-- Beer bubbles -->
  <circle cx="12" cy="16" r="1" fill="#FBBF24"/>
  <circle cx="16" cy="18" r="1" fill="#FBBF24"/>
  <circle cx="20" cy="15" r="1" fill="#FBBF24"/>
  <circle cx="14" cy="20" r="1" fill="#FBBF24"/>
  <circle cx="18" cy="22" r="1" fill="#FBBF24"/>
</svg>