<?xml version="1.0" encoding="UTF-8"?>
<svg xmlns="http://www.w3.org/2000/svg" viewBox="0 0 500 500">
  <!-- Remove white background -->
  <g>
    <!-- Main shapes with updated colors -->
    <path d="M79.90625,210.8671875 h43.09375 v44.1328125 h-43.09375z" fill="#E6D58C"/>
    <path d="M365.03515625,241.8359375 c7.11818477,5.65443548 13.15788065,9.67314965 20.71293164,10.2734375 9.54991193,0.3338398 16.99607164,-0.27133501 24.42578125,-6.953125 5.25294241,-5.65508153 6.55785014,-11.26114164 6.38671875,-18.859375 -0.58856688,-5.70457128 -3.21259347,-10.41962472 -7.25390625,-14.4609375 -9.47289148,-5.98821819 -18.98920185,-8.20631771 -30.03515625,-4.3828125z" fill="#7A4E3F"/>
    <path d="M235.41015625,241.89453125 c11.41120818,-4.49508375 23.28268874,0.94585285 29.53515625,11.55859375 2.1091154,6.13903232 1.93550218,14.09023817 0.046875,20.24609375 -2.73775561,5.3751831 -7.17218972,10.85806246 -13.01953125,12.90234375 -6.08354727,1.12617391 -13.29103451,1.73534212 -18.96484375,-1.09765625 -0.74177734,-0.495 -1.46365234,-0.99 -2.20740234,-1.5 0.14647297,2.63651351 0.11081611,4.67679035 -0.75,7.1875 -1.54973364,2.24711377 -2.72929533,2.79274032 -5.25,-0.22702125 -5.24239414,0.57964683 -10.26259015,0.526614 -15,0 0,-0.66 0,-1.32 0,-2 -2.98984375,1.09375 -2.98984375,1.09375 -5.46875,1.578125 -0.89332031,0.4640625 -1.78664062,0.928125 -2.7,1.40625 -1.60517829,0.82767415 -3.21026863,1.65929505 -4.81640625,2.5 0,0.99 0,1.98 0,3 3.18722169,5.50520111 8.00906294,8.33163778 14,10 8.8679679,0.93698943 18.95924508,1.81262996 26.67578125,-3.21875 0.57816406,-0.44601562 1.13632812,-0.89203125 1.71140625,-1.35156250" fill="#E8D78F"/>
    <path d="M169,212 h15 v74 h-15z M154.3125,240.625 c-3.32421875,-0.3359375 -3.32421875,-0.3359375 0,0z" fill="#E8D78F"/>
    <path d="M312,212 h15 v74 h-15z" fill="#7A4E3E"/>
    <path d="M456,226 h15 v16 h9 v11 h-9 v20 h2 v12 h3 v3 h-32 v-3 h3 v-12 h2 v-20 h-9 v-11 h9z" fill="#794E3E"/>
    <path d="M416,241 h15 v44 h-15z" fill="#7D5344"/>
    <path d="M260,242 h15 v44 h-15z" fill="#E8D78F"/>
    <path d="M188,242 h15 v44 h-15z" fill="#E8D78F"/>
    <path d="M78,255 h11 v43 h-11z" fill="#E8D78E"/>
    
    <!-- Eye shapes -->
    <ellipse cx="358" cy="264" rx="14" ry="10" fill="#FBFAFA"/>
    <ellipse cx="306" cy="264" rx="14" ry="10" fill="#FBFAFA"/>
    <ellipse cx="235" cy="264" rx="14" ry="10" fill="#FEFEFC"/>
    <ellipse cx="163" cy="264" rx="14" ry="10" fill="#FEFEFD"/>
    
    <!-- Additional details -->
    <path d="M199,215 c5.85570965,-0.94109619 8.57935012,0.12816532 12,5 0.35201103,3.46144178 0.56935594,5.86128812 -1,9 -2.78706733,2.70743683 -4.2692355,3.92835642 -8.1875,4.3125 -3.55788327,-0.39532036 -4.43105093,-0.91983184 -6.9375,-3.5 -2.19169086,-3.28753629 -2.30523798,-4.94035818 -1.875,-8.8125 1.47372539,-2.94745078 3.24670979,-4.20437595 6,-6z" fill="#E8D891"/>
    <path d="M271,215 c5.82662873,-1.04046942 8.64524049,0.12034981 12,5 0.7033287,2.83618728 0.70886026,5.16455896 0,8 -2.41389304,3.407849 -3.83897476,4.75297335 -7.9375,5.625 -4.29085983,-0.87568568 -6.18527073,-2.33673797 -9.0625,-5.625 -0.61585026,-2.16639525 -0.70247194,-3.82033669 -0.515625,-6.0625 0.92832706,-3.48825925 2.58729794,-4.94573896 5.515625,-6.9375z" fill="#E8D890"/>
  </g>
</svg>